<?xml version="1.0" encoding="utf-8"?>
<!-- Generator: Adobe Illustrator 17.0.0, SVG Export Plug-In . SVG Version: 6.00 Build 0)  -->
<!DOCTYPE svg PUBLIC "-//W3C//DTD SVG 1.1//EN" "http://www.w3.org/Graphics/SVG/1.1/DTD/svg11.dtd">
<svg version="1.1" id="Layer_1" xmlns="http://www.w3.org/2000/svg" xmlns:xlink="http://www.w3.org/1999/xlink" x="0px" y="0px"
	 width="270.833px" height="99.167px" viewBox="0 0 270.833 99.167" enable-background="new 0 0 270.833 99.167"
	 xml:space="preserve">
<g>
	<path fill="#3F2974" d="M208.788,45.328C171.338,85.567,54.545,61.646,53.244,34.315C61.235,62.192,166.6,67.775,208.788,45.328z"
		/>
</g>
<g>
	<path fill="#3F2974" d="M187.707,61.796C146.5,90.869,58.28,61.312,54.011,40.497C62.101,59.389,136.806,81.068,187.707,61.796z"/>
</g>
<g>
	<g>
		<path d="M54.775,19.604c0-1.38-0.045-2.556-0.091-3.528h2.895l0.158,1.493h0.068c0.475-0.701,1.447-1.741,3.347-1.741
			c1.425,0,2.555,0.724,3.03,1.877h0.046c0.407-0.565,0.904-1.018,1.425-1.334c0.61-0.362,1.289-0.543,2.103-0.543
			c2.126,0,3.732,1.493,3.732,4.795v6.513h-3.347v-6.016c0-1.606-0.52-2.533-1.628-2.533c-0.792,0-1.357,0.543-1.583,1.199
			c-0.09,0.249-0.136,0.611-0.136,0.882v6.468h-3.347v-6.197c0-1.402-0.497-2.352-1.583-2.352c-0.882,0-1.402,0.679-1.606,1.244
			c-0.113,0.271-0.136,0.588-0.136,0.86v6.445h-3.347V19.604z"/>
		<path d="M85.146,21.481c0,4.048-2.872,5.903-5.835,5.903c-3.234,0-5.722-2.126-5.722-5.699c0-3.573,2.352-5.857,5.903-5.857
			C82.884,15.827,85.146,18.156,85.146,21.481z M77.14,21.594c0,1.9,0.791,3.325,2.261,3.325c1.335,0,2.194-1.334,2.194-3.325
			c0-1.651-0.633-3.325-2.194-3.325C77.75,18.269,77.14,19.966,77.14,21.594z"/>
		<path d="M84.987,29.171c0.905-0.068,1.606-0.272,2.036-0.724c0.498-0.52,0.679-1.402,0.679-3.596v-8.775h3.46v9.589
			c0,2.42-0.542,3.89-1.56,4.84c-1.018,0.95-2.623,1.357-4.274,1.357L84.987,29.171z M91.251,13c0,0.95-0.701,1.719-1.854,1.719
			c-1.086,0-1.787-0.769-1.787-1.719c0-0.995,0.701-1.742,1.832-1.742C90.55,11.258,91.229,12.005,91.251,13z"/>
	</g>
</g>
<g>
	<g>
		<g>
			<path d="M99.285,16.043h1.354v30.973h-1.354V16.043z"/>
		</g>
	</g>
</g>
<g>
	<path d="M133.035,45.899c-1.318,0.682-4.229,1.364-7.912,1.364c-9.73,0-15.642-6.093-15.642-15.415
		c0-10.095,7.002-16.188,16.369-16.188c3.684,0,6.321,0.773,7.458,1.364l-1.228,4.456c-1.455-0.636-3.456-1.182-6.002-1.182
		c-6.229,0-10.731,3.911-10.731,11.277c0,6.73,3.956,11.049,10.686,11.049c2.273,0,4.638-0.455,6.093-1.137L133.035,45.899z"/>
	<path d="M137.807,16.57c2.092-0.364,5.229-0.637,8.458-0.637c4.41,0,7.411,0.728,9.458,2.456c1.682,1.41,2.637,3.547,2.637,6.139
		c0,3.956-2.683,6.639-5.547,7.685v0.136c2.183,0.818,3.501,2.956,4.273,5.911c0.955,3.82,1.773,7.367,2.41,8.549h-5.774
		c-0.455-0.909-1.183-3.41-2.047-7.23c-0.863-4.001-2.318-5.274-5.502-5.366h-2.819v12.596h-5.547V16.57z M143.354,30.12h3.32
		c3.773,0,6.139-2,6.139-5.047c0-3.365-2.365-4.911-6.003-4.911c-1.773,0-2.91,0.136-3.456,0.273V30.12z"/>
	<path d="M189.549,34.304c-0.182-3.956-0.409-8.73-0.364-12.869h-0.136c-1.001,3.729-2.273,7.867-3.638,11.731l-4.456,13.278h-4.32
		l-4.092-13.096c-1.183-3.911-2.274-8.094-3.093-11.914h-0.091c-0.136,4.001-0.318,8.867-0.546,13.05l-0.682,12.323h-5.229
		l2.047-30.647h7.366l4.001,12.323c1.092,3.592,2.047,7.23,2.819,10.64h0.137c0.818-3.319,1.864-7.094,3.047-10.686l4.229-12.277
		h7.275l1.773,30.647h-5.457L189.549,34.304z"/>
</g>
</svg>
