<?xml version="1.0" encoding="utf-8"?>
<!-- Generator: Adobe Illustrator 21.0.2, SVG Export Plug-In . SVG Version: 6.00 Build 0)  -->
<svg version="1.1" id="Layer_1" xmlns="http://www.w3.org/2000/svg" xmlns:xlink="http://www.w3.org/1999/xlink" x="0px" y="0px"
	 viewBox="0 0 270.8 99.2" style="enable-background:new 0 0 270.8 99.2;" xml:space="preserve">
<style type="text/css">
	.st0{fill:#3F2974;}
</style>
<g>
	<path class="st0" d="M189.3,37.6c-32.7,31.1-134.9,12.6-136-8.5C60.2,50.7,152.4,55,189.3,37.6z"/>
</g>
<g>
	<path class="st0" d="M170.8,50.3C134.8,72.8,57.6,50,53.9,33.9C61,48.5,126.3,65.3,170.8,50.3z"/>
</g>
<g>
	<g>
		<path d="M54.6,17.7c0-1.1,0-2-0.1-2.7H57l0.1,1.2h0.1c0.4-0.5,1.3-1.3,2.9-1.3c1.2,0,2.2,0.6,2.6,1.5h0c0.4-0.4,0.8-0.8,1.2-1
			c0.5-0.3,1.1-0.4,1.8-0.4c1.9,0,3.3,1.2,3.3,3.7v5h-2.9v-4.7c0-1.2-0.5-2-1.4-2c-0.7,0-1.2,0.4-1.4,0.9c-0.1,0.2-0.1,0.5-0.1,0.7
			v5h-2.9v-4.8c0-1.1-0.4-1.8-1.4-1.8c-0.8,0-1.2,0.5-1.4,1c-0.1,0.2-0.1,0.5-0.1,0.7v5h-2.9C54.6,23.5,54.6,17.7,54.6,17.7z"/>
		<path d="M81.1,19.2c0,3.1-2.5,4.6-5.1,4.6c-2.8,0-5-1.6-5-4.4s2.1-4.5,5.2-4.5C79.2,14.8,81.1,16.6,81.1,19.2z M74.1,19.3
			c0,1.5,0.7,2.6,2,2.6c1.2,0,1.9-1,1.9-2.6c0-1.3-0.6-2.6-1.9-2.6C74.7,16.7,74.1,18,74.1,19.3z"/>
		<path d="M81,25.1c0.8-0.1,1.4-0.2,1.8-0.6c0.4-0.4,0.6-1.1,0.6-2.8V15h3v7.4c0,1.9-0.5,3-1.4,3.7s-2.3,1-3.7,1L81,25.1z
			 M86.5,12.6c0,0.7-0.6,1.3-1.6,1.3c-0.9,0-1.6-0.6-1.6-1.3c0-0.8,0.6-1.3,1.6-1.3C85.9,11.3,86.5,11.8,86.5,12.6z"/>
	</g>
</g>
<g>
	<g>
		<g>
			<path d="M93.5,15h1.2v24h-1.2V15z"/>
		</g>
	</g>
</g>
<g>
	<path d="M123,38.1c-1.2,0.5-3.7,1.1-6.9,1.1c-8.5,0-13.7-4.7-13.7-11.9c0-7.8,6.1-12.5,14.3-12.5c3.2,0,5.5,0.6,6.5,1.1l-1.1,3.4
		c-1.3-0.5-3-0.9-5.2-0.9c-5.4,0-9.4,3-9.4,8.7c0,5.2,3.5,8.5,9.3,8.5c2,0,4.1-0.4,5.3-0.9L123,38.1z"/>
	<path d="M127.2,15.4c1.8-0.3,4.6-0.5,7.4-0.5c3.9,0,6.5,0.6,8.3,1.9c1.5,1.1,2.3,2.7,2.3,4.7c0,3.1-2.3,5.1-4.9,5.9v0.1
		c1.9,0.6,3.1,2.3,3.7,4.6c0.8,3,1.6,5.7,2.1,6.6h-5c-0.4-0.7-1-2.6-1.8-5.6c-0.8-3.1-2-4.1-4.8-4.2H132v9.7h-4.9L127.2,15.4
		L127.2,15.4z M132,25.8h2.9c3.3,0,5.4-1.5,5.4-3.9c0-2.6-2.1-3.8-5.2-3.8c-1.6,0-2.5,0.1-3,0.2L132,25.8L132,25.8z"/>
	<path d="M172.4,29.1c-0.2-3.1-0.4-6.8-0.3-10H172c-0.9,2.9-2,6.1-3.2,9.1l-3.9,10.3h-3.8l-3.6-10.1c-1-3-2-6.3-2.7-9.2h-0.1
		c-0.1,3.1-0.3,6.9-0.5,10.1l-0.6,9.5h-4.6l1.8-23.7h6.4l3.5,9.5c1,2.8,1.8,5.6,2.5,8.2h0.1c0.7-2.6,1.6-5.5,2.7-8.3l3.7-9.5h6.4
		l1.6,23.7h-4.8L172.4,29.1z"/>
</g>
</svg>
